<svg xmlns="http://www.w3.org/2000/svg" width="204" height="169" viewBox="0 0 204 169">
    <defs>
        <filter id="a" width="124%" height="311.5%" x="-12%" y="-105.7%" filterUnits="objectBoundingBox">
            <feGaussianBlur in="SourceGraphic" stdDeviation="2"/>
        </filter>
        <filter id="b" width="160%" height="311.6%" x="-30%" y="-105.8%" filterUnits="objectBoundingBox">
            <feGaussianBlur in="SourceGraphic" stdDeviation="2"/>
        </filter>
    </defs>
    <g fill="none" fill-rule="evenodd">
        <g fill-rule="nonzero">
            <g fill="#000">
                <path d="M163.421 101.33c1.19-1.205 2.763-2.952 4.541-5.05 4.054-4.787 8.68-10.799 12.934-16.907 11.026-15.829 17.898-29.724 17.898-38.075 0-19.036-17.134-36.17-36.17-36.17s-36.17 17.134-36.17 36.17a2.128 2.128 0 1 1-4.255 0c0-21.386 19.039-40.426 40.425-40.426 21.386 0 40.426 19.04 40.426 40.426 0 9.53-7.142 23.968-18.662 40.507-4.331 6.219-9.038 12.336-13.179 17.224-4.605 5.437-6.958 7.82-8.585 7.82h-.313l-.3-.09c-2.282-.686-9.753-9.287-17.484-19.826-9.221-12.57-16.577-24.887-19.938-34.312a2.128 2.128 0 0 1 4.008-1.43c3.192 8.951 10.364 20.96 19.36 33.225 5.935 8.09 12.423 15.722 14.606 17.751.248-.23.536-.51.858-.836z"/>
                <path d="M162.482 59.6a2.16 2.16 0 0 1 .142-.004 19.27 19.27 0 0 0 3.326-.288 19.27 19.27 0 0 0 3.223-.867 19.27 19.27 0 0 0 3.027-1.408 19.247 19.247 0 0 0 6.111-5.602 19.247 19.247 0 0 0 3.174-7.658c.19-1.08.288-2.192.288-3.326a19.27 19.27 0 0 0-.288-3.326 19.27 19.27 0 0 0-.867-3.224 19.27 19.27 0 0 0-1.408-3.026 19.247 19.247 0 0 0-5.602-6.111 19.247 19.247 0 0 0-7.658-3.174 19.27 19.27 0 0 0-3.326-.288 19.27 19.27 0 0 0-3.326.288 19.27 19.27 0 0 0-3.223.867 2.16 2.16 0 0 1-.135.044c-7.28 2.712-12.465 9.725-12.465 17.95a2.128 2.128 0 0 1-4.255 0c0-11.54 8.351-21.129 19.34-23.053a23.25 23.25 0 0 1 8.13 0 23.278 23.278 0 0 1 9.36 3.88 23.278 23.278 0 0 1 6.846 7.468 23.25 23.25 0 0 1 2.78 7.64 23.25 23.25 0 0 1 0 8.13 23.278 23.278 0 0 1-3.879 9.36 23.278 23.278 0 0 1-7.469 6.847 23.25 23.25 0 0 1-7.64 2.78c-10.983 1.95-22.11-4.204-26.057-15.047a2.128 2.128 0 0 1 3.999-1.456c2.813 7.729 10.084 12.546 17.852 12.604z"/>
            </g>
            <g fill="#F04C7D">
                <path d="M23.437 94.918c.653-.661 1.515-1.619 2.49-2.77 2.223-2.624 4.76-5.92 7.092-9.27 6.046-8.68 9.814-16.299 9.814-20.878 0-10.438-9.395-19.833-19.833-19.833-10.438 0-19.833 9.395-19.833 19.833a1.167 1.167 0 0 1-2.334 0c0-11.727 10.44-22.167 22.167-22.167 11.727 0 22.167 10.44 22.167 22.167 0 5.225-3.916 13.143-10.233 22.212-2.375 3.41-4.956 6.764-7.226 9.444-2.525 2.981-3.816 4.288-4.708 4.288h-.172l-.164-.05c-1.252-.376-5.348-5.092-9.587-10.87C8.02 80.13 3.987 73.376 2.144 68.208a1.167 1.167 0 1 1 2.198-.784c1.75 4.908 5.683 11.493 10.616 18.218 3.254 4.436 6.811 8.621 8.008 9.734.137-.126.295-.28.47-.459z"/>
                <path d="M22.922 72.036l.078-.003c.622 0 1.231-.054 1.824-.157a10.566 10.566 0 0 0 3.427-1.248 10.554 10.554 0 0 0 3.35-3.072 10.554 10.554 0 0 0 1.741-4.199 10.566 10.566 0 0 0-.475-5.415 10.566 10.566 0 0 0-.772-1.66 10.554 10.554 0 0 0-3.072-3.35 10.554 10.554 0 0 0-4.2-1.74 10.566 10.566 0 0 0-5.488.499c-3.992 1.487-6.835 5.333-6.835 9.842a1.167 1.167 0 0 1-2.333 0c0-6.327 4.579-11.585 10.604-12.64a12.748 12.748 0 0 1 4.458 0c1.884.33 3.627 1.07 5.133 2.127a12.764 12.764 0 0 1 3.754 4.095 12.748 12.748 0 0 1 1.524 4.19 12.748 12.748 0 0 1 0 4.457 12.764 12.764 0 0 1-2.127 5.133 12.764 12.764 0 0 1-4.095 3.754 12.748 12.748 0 0 1-4.19 1.525c-6.022 1.07-12.123-2.306-14.287-8.251a1.167 1.167 0 1 1 2.192-.798c1.543 4.237 5.53 6.879 9.79 6.91z"/>
            </g>
        </g>
        <path stroke="#979797" stroke-dasharray="5" stroke-linecap="round" stroke-width="1.5" d="M162 117.66c-13.022 7.025-40.404 24.61-73.565 22.506-20.354-1.29-42.886-9.998-65.61-33.117"/>
        <ellipse cx="163" cy="161.837" fill="#E0E0E0" filter="url(#a)" opacity=".499" rx="25" ry="2.837"/>
        <ellipse cx="23" cy="135.835" fill="#E0E0E0" filter="url(#b)" opacity=".499" rx="10" ry="2.835"/>
    </g>
</svg>
