<?xml version="1.0" encoding="UTF-8"?>
<svg width="38px" height="46px" viewBox="0 0 38 46" version="1.1" xmlns="http://www.w3.org/2000/svg" xmlns:xlink="http://www.w3.org/1999/xlink">
    <!-- Generator: Sketch 52.3 (67297) - http://www.bohemiancoding.com/sketch -->
    <title>Basket Icon</title>
    <desc>Created with Sketch.</desc>
    <g id="Page-1" stroke="none" stroke-width="1" fill="none" fill-rule="evenodd">
        <g id="Progress-Bar" transform="translate(-519.000000, -17.000000)">
            <g id="Basket-Icon" transform="translate(519.000000, 18.000000)">
                <path d="M13.5,38.0892857 C13.0561998,38.0892857 12.6964286,37.7295145 12.6964286,37.2857143 C12.6964286,36.841914 13.0561998,36.4821429 13.5,36.4821429 L18.3200846,36.4821429 C21.4274662,36.4821429 23.9464286,33.963707 23.9464286,30.8571429 C23.9464286,27.7505787 21.4274662,25.2321429 18.3200846,25.2321429 L13.5,25.2321429 C13.0561998,25.2321429 12.6964286,24.8723717 12.6964286,24.4285714 C12.6964286,23.9847712 13.0561998,23.625 13.5,23.625 L18.3200846,23.625 C22.3149915,23.625 25.5535714,26.862903 25.5535714,30.8571429 C25.5535714,34.8513827 22.3149915,38.0892857 18.3200846,38.0892857 L13.5,38.0892857 Z" id="Oval-4" fill="#000000" fill-rule="nonzero" transform="translate(19.125000, 30.857143) rotate(90.000000) translate(-19.125000, -30.857143) "></path>
                <rect id="Rectangle-2" fill="#F04D7D" x="21.2142857" y="13.5" width="4.17857143" height="4.82142857"></rect>
                <path d="M2.70595963,19.2395044 L2.36079458,28.2981654 C2.34389658,28.7416439 1.97068775,29.0874556 1.52720932,29.0705576 C1.08373089,29.0536596 0.737919131,28.6804508 0.754817131,28.2369724 L1.10585214,19.0242577 C1.13537785,18.2493722 1.7707195,17.6356295 2.54616256,17.6329118 L35.3721497,17.5178661 C36.1517794,17.5151337 36.7932971,18.1307942 36.8226238,18.909877 L37.7672884,44.0054872 C37.7844283,44.4608187 37.4199397,44.8392857 36.9642857,44.8392857 L0.964285714,44.8392857 C0.508492386,44.8392857 0.143950648,44.4605966 0.161296391,44.0051334 L0.650985959,31.1469039 C0.667875292,30.7034251 1.04107737,30.3576061 1.48455612,30.3744954 C1.92803488,30.3913847 2.27385394,30.7645868 2.2569646,31.2080656 L1.79904268,43.2321429 L36.1298966,43.2321429 L35.222461,19.1255435 L2.70595963,19.2395044 Z" id="Combined-Shape" fill="#000000" fill-rule="nonzero"></path>
                <g id="Group-13" transform="translate(4.500000, 0.000000)" fill="#000000" fill-rule="nonzero">
                    <path d="M3.99239792,14.9405094 C4.43619817,14.9405094 4.79596935,15.3002806 4.79596935,15.7440808 C4.79596935,16.1878811 4.43619817,16.5476523 3.99239792,16.5476523 L1.58948195,16.5476523 L1.52412315,16.5449899 C0.175987687,16.4349742 -0.654557496,15.6910862 -0.654557496,14.453908 C-0.654557496,13.3177329 0.0393206588,12.4722802 1.26374508,11.9850785 L13.9405149,5.72293861 C14.3384146,5.52638197 14.8203166,5.68960274 15.0168733,6.0875024 C15.2134299,6.48540206 15.0502092,6.96730412 14.6523095,7.16386076 L1.94537923,13.4408994 L1.88103377,13.4692538 C1.20609617,13.7320412 0.952585361,14.037118 0.952585361,14.453908 C0.952585361,14.7741953 1.07759992,14.8920855 1.62355094,14.9405094 L3.99239792,14.9405094 Z" id="Oval-11"></path>
                    <path d="M23.9822402,16.5476523 C23.53844,16.5476523 23.1786688,16.1878811 23.1786688,15.7440808 C23.1786688,15.3002806 23.53844,14.9405094 23.9822402,14.9405094 L26.7264249,14.9405094 L26.7744332,14.9419448 C27.6866414,14.9965409 27.9069895,14.8532609 27.9069895,14.453908 C27.9069895,14.0655818 27.4767856,13.633006 26.4227738,13.2028237 L16.1266018,8.43887423 C15.72384,8.2524833 15.5484368,7.77488064 15.7348277,7.37211882 C15.9212186,6.96935701 16.3988213,6.79395374 16.8015831,6.98034467 L27.0475588,11.721998 C28.6281139,12.370981 29.5141324,13.2662404 29.5141324,14.453908 C29.5141324,15.9260299 28.4222675,16.6430659 26.7033009,16.5476523 L23.9822402,16.5476523 Z" id="Oval-11"></path>
                    <path d="M15.1181799,6.56178596 C14.9963564,6.98853845 14.5516477,7.23573223 14.1248952,7.11390871 C13.6981427,6.9920852 13.4509489,6.54737648 13.5727724,6.12062399 C13.7492656,5.50236145 14.2812652,4.71614217 14.8035344,4.12404992 C15.4588351,3.38114107 15.7270408,2.85318035 15.7270408,2.29591837 C15.7270408,1.46619515 15.0848055,0.803571429 14.3053375,0.803571429 C13.5258695,0.803571429 12.8836342,1.46619515 12.8836342,2.29591837 C12.8836342,2.73971861 12.523863,3.0994898 12.0800628,3.0994898 C11.6362625,3.0994898 11.2764914,2.73971861 11.2764914,2.29591837 C11.2764914,0.589640186 12.6268349,-0.803571429 14.3053375,-0.803571429 C15.9838401,-0.803571429 17.3341837,0.589640186 17.3341837,2.29591837 C17.3341837,3.3209256 16.8985381,4.1784902 16.0087977,5.18718141 C15.6350933,5.61084701 15.2105247,6.23829869 15.1181799,6.56178596 Z" id="Oval-11"></path>
                </g>
                <path d="M9.80357143,18 C9.80357143,18.4438002 9.44380025,18.8035714 9,18.8035714 C8.55619975,18.8035714 8.19642857,18.4438002 8.19642857,18 L8.19642857,13.2641704 C8.19642857,12.8217624 8.55402973,12.4625705 8.99643341,12.4606069 L28.2821477,12.3750079 C28.727337,12.373032 29.0892857,12.7333777 29.0892857,13.1785714 L29.0892857,18 C29.0892857,18.4438002 28.7295145,18.8035714 28.2857143,18.8035714 C27.841914,18.8035714 27.4821429,18.4438002 27.4821429,18 L27.4821429,13.9857174 L9.80357143,14.0641831 L9.80357143,18 Z" id="Combined-Shape" fill="#000000" fill-rule="nonzero"></path>
            </g>
        </g>
    </g>
</svg>