<?xml version="1.0" encoding="UTF-8"?>
<svg width="39px" height="46px" viewBox="0 0 39 46" version="1.1" xmlns="http://www.w3.org/2000/svg" xmlns:xlink="http://www.w3.org/1999/xlink">
    <!-- Generator: Sketch 52.3 (67297) - http://www.bohemiancoding.com/sketch -->
    <title>Payment Info</title>
    <desc>Created with Sketch.</desc>
    <g id="Page-1" stroke="none" stroke-width="1" fill="none" fill-rule="evenodd">
        <g id="Progress-Bar" transform="translate(-38.000000, -17.000000)">
            <g id="Payment-Info" transform="translate(39.000000, 18.000000)">
                <g id="Payment">
                    <g id="Group-17" transform="translate(18.663240, 14.953345) rotate(-17.000000) translate(-18.663240, -14.953345) translate(2.546219, 4.421430)">
                        <path d="M0.800328099,1.02743882 L0.800328099,6.84050864 C0.800328099,7.28116137 0.443108485,7.63838098 0.00245575869,7.63838098 C-0.438196967,7.63838098 -0.795416582,7.28116137 -0.795416582,6.84050864 L-0.795416582,0.229566479 C-0.795416582,-0.211086247 -0.438196967,-0.568305861 0.00245575869,-0.568305861 L31.9173494,-0.568305861 C32.3580021,-0.568305861 32.7152217,-0.211086247 32.7152217,0.229566479 L32.7152217,20.9742473 C32.7152217,21.4148492 32.3580814,21.7720478 31.9174795,21.7721197 L0.000989151539,21.7773254 C-0.439690571,21.7773973 -0.796979636,21.4201938 -0.797013323,20.979514 L-0.797872338,9.74237356 C-0.797906023,9.30172083 -0.440713717,8.94447391 -6.09927713e-05,8.94444022 C0.440591732,8.94440654 0.797838653,9.30159885 0.797872338,9.74225157 L0.798670355,20.1814506 L31.119477,20.1765051 L31.119477,1.02743882 L0.800328099,1.02743882 Z" id="Combined-Shape" fill="#000000" fill-rule="nonzero"></path>
                        <polygon id="Rectangle-4" fill="#F04D7D" points="3.82978723 4.14893617 12.7659574 4.14893617 12.7659574 10.5319149 3.82978723 10.5319149"></polygon>
                        <path d="M4.11316948,15.0027513 C3.67251675,15.0027513 3.31529714,14.6455317 3.31529714,14.2048789 C3.31529714,13.7642262 3.67251675,13.4070066 4.11316948,13.4070066 L11.6290718,13.4070066 C12.0697245,13.4070066 12.4269441,13.7642262 12.4269441,14.2048789 C12.4269441,14.6455317 12.0697245,15.0027513 11.6290718,15.0027513 L4.11316948,15.0027513 Z" id="Line-6" fill="#000000" fill-rule="nonzero"></path>
                        <path d="M21.8809611,15.057777 C21.4403084,15.057777 21.0830888,14.7005573 21.0830888,14.2599046 C21.0830888,13.8192519 21.4403084,13.4620323 21.8809611,13.4620323 L26.0106383,13.4620323 C26.451291,13.4620323 26.8085106,13.8192519 26.8085106,14.2599046 C26.8085106,14.7005573 26.451291,15.057777 26.0106383,15.057777 L21.8809611,15.057777 Z" id="Line-6" fill="#000000" fill-rule="nonzero"></path>
                        <path d="M4.11316948,17.8640866 C3.67251675,17.8640866 3.31529714,17.506867 3.31529714,17.0662142 C3.31529714,16.6255615 3.67251675,16.2683419 4.11316948,16.2683419 L6.97450477,16.2683419 C7.41515749,16.2683419 7.77237711,16.6255615 7.77237711,17.0662142 C7.77237711,17.506867 7.41515749,17.8640866 6.97450477,17.8640866 L4.11316948,17.8640866 Z" id="Line-6" fill="#000000" fill-rule="nonzero"></path>
                    </g>
                    <path d="M36.2234043,23.9361702 C36.2234043,23.4955175 36.5806239,23.1382979 37.0212766,23.1382979 C37.4619293,23.1382979 37.8191489,23.4955175 37.8191489,23.9361702 L37.8191489,44.0425532 C37.8191489,44.4832059 37.4619293,44.8404255 37.0212766,44.8404255 C36.0200643,44.8404255 35.4700941,44.5214322 34.7797195,43.7938807 C34.7520363,43.7646797 34.7520363,43.7646797 34.7253328,43.7365025 C34.3413801,43.3316715 34.1965197,43.2446809 33.8280731,43.2446809 C33.4349694,43.2446809 33.2686769,43.3447364 32.818619,43.7990008 C32.0842135,44.5402697 31.583676,44.8404255 30.6465571,44.8404255 C29.7143658,44.8404255 29.2067634,44.5429264 28.461346,43.8158415 C27.9824256,43.3487029 27.8060192,43.2446809 27.420005,43.2446809 C27.0399582,43.2446809 26.8798776,43.3422105 26.4432345,43.7901822 C25.7152572,44.5370445 25.214592,44.8404255 24.2783826,44.8404255 C23.3512855,44.8404255 22.8540615,44.5443616 22.1270976,43.8186073 C21.6565996,43.3488925 21.4808326,43.2446809 21.0656998,43.2446809 C20.6454725,43.2446809 20.456573,43.354419 19.9778859,43.8178955 C19.2228166,44.5489659 18.7243687,44.8404255 17.8118767,44.8404255 C16.8834685,44.8404255 16.3909868,44.541529 15.6649103,43.8046998 C15.2117377,43.3448159 15.0467877,43.2446809 14.6556059,43.2446809 C14.2952879,43.2446809 14.1578839,43.3280699 13.7879605,43.7257759 C13.7594925,43.7564098 13.7594925,43.7564098 13.7298466,43.7882958 C13.0510147,44.5175869 12.4974231,44.8404255 11.4893617,44.8404255 C11.048709,44.8404255 10.6914894,44.4832059 10.6914894,44.0425532 L10.6914894,31.3934387 C10.6914894,30.9527859 11.048709,30.5955663 11.4893617,30.5955663 C11.9300144,30.5955663 12.287234,30.9527859 12.287234,31.3934387 L12.287234,42.9731146 C12.3701293,42.9011755 12.4588231,42.8116976 12.5618002,42.7010659 C12.5901401,42.6705844 12.5901401,42.6705844 12.6195252,42.6389639 C13.2620349,41.9481996 13.7551451,41.6489362 14.6556059,41.6489362 C15.5832156,41.6489362 16.0752777,41.9476488 16.8010242,42.6841433 C17.2545448,43.1443802 17.4198067,43.2446809 17.8118767,43.2446809 C18.2048974,43.2446809 18.3840495,43.1399244 18.8511247,42.6876952 C19.6173332,41.9458328 20.1284005,41.6489362 21.0656998,41.6489362 C22.0073795,41.6489362 22.5122497,41.9482721 23.245228,42.68003 C23.7094398,43.1434697 23.8794188,43.2446809 24.2783826,43.2446809 C24.6781595,43.2446809 24.845267,43.1434211 25.2893972,42.6877696 C26.0102365,41.9482279 26.50148,41.6489362 27.420005,41.6489362 C28.3290696,41.6489362 28.8248987,41.9413129 29.5598802,42.6582121 C30.0497032,43.1359893 30.2351562,43.2446809 30.6465571,43.2446809 C31.0521993,43.2446809 31.2229537,43.1422851 31.6778575,42.68313 C32.4076411,41.9465254 32.9022349,41.6489362 33.8280731,41.6489362 C34.731423,41.6489362 35.2269581,41.9465119 35.8831557,42.6383917 C35.9106513,42.6674045 35.9106513,42.6674045 35.9372683,42.695481 C36.0450199,42.8090351 36.1374163,42.9005303 36.2234043,42.973796 L36.2234043,23.9361702 Z" id="Rectangle" fill="#000000" fill-rule="nonzero"></path>
                    <path d="M23.6148396,33.0319149 C23.1741869,33.0319149 22.8169673,32.6746953 22.8169673,32.2340426 C22.8169673,31.7933898 23.1741869,31.4361702 23.6148396,31.4361702 L32.5531915,31.4361702 C32.9938442,31.4361702 33.3510638,31.7933898 33.3510638,32.2340426 C33.3510638,32.6746953 32.9938442,33.0319149 32.5531915,33.0319149 L23.6148396,33.0319149 Z" id="Line-6" fill="#000000" fill-rule="nonzero"></path>
                    <path d="M15.7330452,35.9042553 C15.2923925,35.9042553 14.9351729,35.5470357 14.9351729,35.106383 C14.9351729,34.6657303 15.2923925,34.3085106 15.7330452,34.3085106 L32.5531915,34.3085106 C32.9938442,34.3085106 33.3510638,34.6657303 33.3510638,35.106383 C33.3510638,35.5470357 32.9938442,35.9042553 32.5531915,35.9042553 L15.7330452,35.9042553 Z" id="Line-6" fill="#000000" fill-rule="nonzero"></path>
                    <path d="M20.4202335,38.7765957 C19.9795808,38.7765957 19.6223612,38.4193761 19.6223612,37.9787234 C19.6223612,37.5380707 19.9795808,37.1808511 20.4202335,37.1808511 L32.5531915,37.1808511 C32.9938442,37.1808511 33.3510638,37.5380707 33.3510638,37.9787234 C33.3510638,38.4193761 32.9938442,38.7765957 32.5531915,38.7765957 L20.4202335,38.7765957 Z" id="Line-6" fill="#000000" fill-rule="nonzero"></path>
                </g>
            </g>
        </g>
    </g>
</svg>