<?xml version="1.0" encoding="UTF-8"?>
<svg width="35px" height="46px" viewBox="0 0 35 46" version="1.1" xmlns="http://www.w3.org/2000/svg" xmlns:xlink="http://www.w3.org/1999/xlink">
    <!-- Generator: Sketch 52.3 (67297) - http://www.bohemiancoding.com/sketch -->
    <title>Shipping Info</title>
    <desc>Created with Sketch.</desc>
    <g id="Page-1" stroke="none" stroke-width="1" fill="none" fill-rule="evenodd">
        <g id="Progress-Bar" transform="translate(-281.000000, -17.000000)">
            <g id="Shipping-Info" transform="translate(281.000000, 17.000000)">
                <ellipse id="Oval-6" fill="#F04C7D" cx="17.2340426" cy="39.9361702" rx="4.78723404" ry="1.91489362"></ellipse>
                <path d="M34.0033325,41.3770549 C34.010521,41.4105758 34.0156317,41.4449417 34.018514,41.4800248 L34.3058338,44.9772224 C34.3440348,45.4419566 33.9771497,45.8404255 33.5106383,45.8404255 L0.957446809,45.8404255 C0.491029916,45.8404255 0.124062846,45.4420731 0.16225365,44.9772224 L0.449573402,41.4800248 C0.452455734,41.4449417 0.457566431,41.4105758 0.464754959,41.3770549 L1.10543462,33.7520914 C1.16794308,33.0081554 1.79000427,32.4361702 2.53656182,32.4361702 L7.70601547,32.4361702 C8.14666819,32.4361702 8.50388781,32.7933898 8.50388781,33.2340426 C8.50388781,33.6746953 8.14666819,34.0319149 7.70601547,34.0319149 L2.68329052,34.0319149 L1.82517343,44.2446809 L32.642914,44.2446809 L31.7847969,34.0319149 L26.762072,34.0319149 C26.3214192,34.0319149 25.9641996,33.6746953 25.9641996,33.2340426 C25.9641996,32.7933898 26.3214192,32.4361702 26.762072,32.4361702 L31.9315256,32.4361702 C32.6780832,32.4361702 33.3001444,33.0081554 33.3626528,33.7520914 L34.0033325,41.3770549 Z" id="Combined-Shape" fill="#000000" fill-rule="nonzero"></path>
                <g id="Group" transform="translate(1.872340, 0.000000)" fill="#000000" fill-rule="nonzero">
                    <path d="M15.6605188,37.8741002 C16.1070438,37.4218447 16.6966418,36.7669071 17.3634809,35.9796505 C18.8837992,34.1847939 20.6182006,31.930478 22.2137026,29.6399155 C26.3483309,23.7040878 28.9255319,18.4932748 28.9255319,15.3617021 C28.9255319,8.22312797 22.5002763,1.79787234 15.3617021,1.79787234 C8.22312797,1.79787234 1.79787234,8.22312797 1.79787234,15.3617021 C1.79787234,15.8023549 1.44065273,16.1595745 1,16.1595745 C0.559347274,16.1595745 0.20212766,15.8023549 0.20212766,15.3617021 C0.20212766,7.34182252 7.34182252,0.20212766 15.3617021,0.20212766 C23.3815817,0.20212766 30.5212766,7.34182252 30.5212766,15.3617021 C30.5212766,18.9351566 27.8432629,24.3498018 23.5231035,30.5519847 C21.898849,32.8838254 20.1338183,35.1779523 18.5811173,37.0110392 C16.854326,39.0496537 15.9716571,39.9436503 15.3617021,39.9436503 L15.2442349,39.9436503 L15.1317519,39.9097957 C14.275938,39.6522172 11.4742593,36.4270737 8.57513754,32.4750173 C5.11732512,27.7613589 2.35906741,23.1423277 1.09839943,19.6077852 C0.950365671,19.192742 1.16681956,18.736278 1.58186273,18.5882442 C1.9969059,18.4402105 2.45336994,18.6566644 2.6014037,19.0717075 C3.79861912,22.4283478 6.48791006,26.9318859 9.86180697,31.5311514 C12.0870396,34.5645683 14.5200236,37.4267319 15.3386465,38.1877297 C15.4318698,38.101408 15.5398863,37.9962808 15.6605188,37.8741002 Z" id="Oval-5"></path>
                    <path d="M15.3084189,22.2251552 C15.32603,22.223994 15.3437972,22.2234043 15.3617021,22.2234043 C15.7870704,22.2234043 16.2038004,22.1864189 16.6088515,22.1154885 C17.0137346,22.0436056 17.4179824,21.9358305 17.8176978,21.7903459 C18.217444,21.6448502 18.5964198,21.4675493 18.9528076,21.2623409 C19.8612755,20.7366878 20.6438963,20.0177124 21.2444131,19.1616717 C21.8434393,18.3045875 22.2513831,17.3232603 22.4346211,16.2897958 C22.5055621,15.8847154 22.5425532,15.4679542 22.5425532,15.0425532 C22.5425532,14.6171849 22.5055678,14.200455 22.4346375,13.7954039 C22.3627545,13.3905207 22.2549794,12.9862729 22.1094949,12.5865575 C21.9639992,12.1868113 21.7866982,11.8078355 21.5814898,11.4514477 C21.0558367,10.5429799 20.3368613,9.76035898 19.4808207,9.15984225 C18.6237364,8.560816 17.6424092,8.1528722 16.6089448,7.96963421 C16.2038644,7.89869319 15.7871031,7.86170213 15.3617021,7.86170213 C14.9363338,7.86170213 14.5196039,7.89868751 14.1145528,7.96961787 C13.7096697,8.04150077 13.3054219,8.1492759 12.9057064,8.29476044 C12.8888813,8.30088428 12.8719839,8.30640681 12.8550377,8.31133899 C10.125223,9.32832532 8.18085106,11.9583731 8.18085106,15.0425532 C8.18085106,15.4832059 7.82363145,15.8404255 7.38297872,15.8404255 C6.942326,15.8404255 6.58510638,15.4832059 6.58510638,15.0425532 C6.58510638,10.7152678 9.7168108,7.11943119 13.8374085,6.39785446 C14.8644919,6.2155062 15.8949205,6.22213201 16.8861098,6.39787443 C18.1746841,6.62354016 19.3665508,7.13028293 20.3961804,7.85257315 C21.4270652,8.57307065 22.3108901,9.51974277 22.9636648,10.6534243 C23.4678154,11.5247301 23.826469,12.4907501 24.0064009,13.5182596 C24.1887491,14.5453429 24.1821233,15.5757715 24.0063809,16.5669609 C23.7807152,17.8555351 23.2739724,19.0474018 22.5516822,20.0770314 C21.8311847,21.1079163 20.8845126,21.9917411 19.750831,22.6445159 C18.8795252,23.1486665 17.9135052,23.50732 16.8859958,23.6872519 C12.7671067,24.418519 8.59441864,22.1106439 7.11439987,18.0443257 C6.96368776,17.6302476 7.17718809,17.1723947 7.59126621,17.0216826 C8.00534432,16.8709705 8.46319726,17.0844708 8.61390937,17.4985489 C9.6687611,20.3967302 12.3954023,22.2031523 15.3084189,22.2251552 Z" id="Combined-Shape"></path>
                </g>
            </g>
        </g>
    </g>
</svg>