<svg width="48" height="48" viewBox="0 0 48 48" fill="none" xmlns="http://www.w3.org/2000/svg">
<path d="M20.2 27.25H28.3V34.55H20.2V27.25Z" fill="#7B7B7B"/>
<path d="M17 43H21V41.5H17V43Z" fill="#7B7B7B"/>
<path d="M23.0055 40.5H17.0055V39H23.0055V40.5Z" fill="#7B7B7B"/>
<path fill-rule="evenodd" clip-rule="evenodd" d="M3.2575 21H4.7827C4.7992 20.8743 4.822 20.7499 4.8506 20.6271L13 27.0608V46H35V27.0608L43.1494 20.6271C43.178 20.7499 43.2008 20.8743 43.2173 21H44.7425C44.7475 20.8341 44.75 20.6675 44.75 20.5C44.75 10.268 35.4339 2 24 2C12.5661 2 3.25 10.268 3.25 20.5C3.25 20.6675 3.2525 20.8341 3.2575 21ZM28.25 34.5V27.25H33.5V44.5H14.5V27.25H20.25V34.5H28.25ZM18.1163 21H16.5504C16.2384 18.6409 13.7456 16.75 10.6667 16.75C8.429 16.75 6.4889 17.753 5.4832 19.2154L13.7604 25.75H21.0953L18.2071 20.5354C18.1675 20.6879 18.137 20.8429 18.1163 21ZM24 16.75C26.0997 16.75 27.9254 17.6214 28.9741 18.9177L25.1901 25.75H22.81L19.0316 18.9281C20.0816 17.6254 21.9051 16.75 24 16.75ZM42.5168 19.2154C41.5111 17.753 39.571 16.75 37.3333 16.75C34.2473 16.75 31.7404 18.6469 31.4458 21H29.888C29.868 20.8397 29.8379 20.6816 29.798 20.526L26.9048 25.75H34.2396L42.5168 19.2154ZM18.5083 15.0927C19.112 10.2457 20.9158 6.9177 24.9421 3.52C33.9547 3.9042 41.329 9.7702 42.9281 17.3933C41.5606 16.0732 39.5489 15.25 37.3333 15.25C34.4285 15.25 31.8805 16.66 30.6681 18.7332C29.4582 16.6588 26.9125 15.25 24 15.25C21.0889 15.25 18.5438 16.6679 17.3333 18.7527C16.1229 16.6679 13.5778 15.25 10.6667 15.25C8.4511 15.25 6.4394 16.0732 5.0719 17.3933C6.6483 9.8786 13.8367 4.0714 22.6743 3.5397C19.2519 6.8139 17.601 10.2409 17.0198 14.9073L18.5083 15.0927Z" fill="#7B7B7B"/>
</svg>
