<svg xmlns="http://www.w3.org/2000/svg" width="207" height="34" viewBox="0 0 252 40">
    <path fill-rule="evenodd" d="M87.064 20.007v-2.3H67.108v4.6h15.341c-1.096 7.429-7.56 13.187-15.344 13.187-8.552 0-15.509-6.947-15.509-15.487S58.553 4.519 67.105 4.519c5.011 0 9.74 2.44 12.648 6.524l3.677-2.61C79.677 3.161 73.574.014 67.105.014c-11.04 0-20.02 8.968-20.02 19.993C47.085 31.03 56.065 40 67.105 40c11.038 0 20.018-8.969 19.96-19.993zm116.67 15.003V.624h-4.385V39.39h23.904v-4.38h-19.518zM192.272.624l-12.197 19.694L167.877.624h-5.16l15.14 24.446v14.32h4.387V25.147L197.432.624h-5.16zM126.838 36.65c2.438-2.062 3.726-5.085 3.726-8.738 0-3.717-1.506-6.531-4.474-8.366-2.425-1.5-5.855-2.368-10.795-2.734-8.999-.832-9-4.64-9-5.893 0-3.957 3.462-6.514 8.819-6.514 5.429 0 9.524 2.801 9.524 6.514h4.41C129.048 4.694 123.057 0 115.114 0c-7.789 0-13.228 4.49-13.228 10.918 0 3.069 1.305 5.626 3.776 7.395 2.165 1.55 5.277 2.521 9.25 2.885l.039.004c10.337.761 11.204 3.863 11.204 6.709 0 1.874 0 7.579-10.42 7.579-6.5 0-11.041-3.35-11.041-8.146h-4.41c0 7.271 6.498 12.55 15.451 12.55 4.825 0 8.56-1.092 11.103-3.245zM252 4.785V.625h-24.36v38.764H252v-4.38h-19.975V22.192h16.01v-4.38h-16.01V4.784H252zM160.673.602h-30.076v4.38h12.844V39.4h4.386V4.982h12.846V.602zM91.451 39.39h4.386V.624H91.45V39.39zm-53.174 0h4.386V.624h-4.386V39.39zM0 39.39V.623h14.448c10.586 0 19.22 8.507 19.406 19.034.193 10.883-8.774 19.731-19.672 19.731H0zm4.386-4.38h9.827c8.25 0 15.141-6.544 15.26-14.782.122-8.373-6.663-15.224-15.02-15.224H4.386V35.01z"/>
</svg>
