<svg width="125" height="198" viewBox="0 0 125 246" fill="none" xmlns="http://www.w3.org/2000/svg">
<path fill-rule="evenodd" clip-rule="evenodd" d="M71.0366 122.916L63.3111 140.844L66.5525 142.243L74.2719 124.33L71.0366 122.916Z" fill="#262626"/>
<path d="M41.2605 118.984C41.2557 119.063 41.2277 119.266 41.1764 119.594C41.125 119.921 41.0493 120.326 40.9492 120.809C40.8653 121.284 40.7663 121.814 40.6521 122.398C40.5427 122.97 40.417 123.549 40.2751 124.135C40.1378 124.71 39.996 125.263 39.8495 125.793C39.7031 126.324 39.5533 126.78 39.4001 127.161C38.9545 128.268 38.3842 129.151 37.6894 129.811C37.0107 130.463 36.2698 130.936 35.4668 131.231C34.6799 131.518 33.8712 131.643 33.0408 131.605C32.2104 131.567 31.4253 131.4 30.6855 131.103L23.5071 128.227L24.8231 124.956L32.0014 127.833C32.1748 127.902 32.4269 127.977 32.7576 128.056C33.1045 128.128 33.4757 128.122 33.8714 128.04C34.2787 127.962 34.6814 127.761 35.0797 127.439C35.4896 127.121 35.8431 126.593 36.1402 125.854C36.2423 125.601 36.3468 125.274 36.4538 124.875C36.5769 124.469 36.692 124.033 36.799 123.566C36.9223 123.093 37.0363 122.61 37.141 122.116C37.2504 121.611 37.3482 121.134 37.4344 120.686C37.5206 120.239 37.594 119.839 37.6546 119.489C37.7152 119.138 37.7549 118.872 37.7736 118.692L41.2605 118.984ZM34.3964 140.246L30.4593 141.924L28.8823 138.037L32.7361 136.366L34.3964 140.246ZM27.7412 137.62L23.8042 139.297L22.2271 135.41L26.0809 133.739L27.7412 137.62Z" fill="#262626"/>
<path fill-rule="evenodd" clip-rule="evenodd" d="M23.5071 128.227L24.2527 128.526L25.5687 125.255L24.8231 124.956C24.6959 124.906 24.4717 124.796 24.1504 124.627C23.8452 124.451 23.5483 124.205 23.2596 123.888C22.9708 123.571 22.7597 123.179 22.6262 122.71C22.5088 122.234 22.5801 121.673 22.8401 121.027L25.1448 115.3L21.8675 113.986L17.5227 124.784C17.0167 126.041 16.4417 127.07 15.7975 127.87C15.1649 128.675 14.4413 129.256 13.6265 129.613C12.8233 129.974 11.9268 130.117 10.9368 130.042C9.95376 129.983 8.86689 129.715 7.67621 129.238L5.28328 128.279L3.9673 131.549L6.36023 132.508C8.00175 133.166 9.54537 133.517 10.9911 133.56C12.4484 133.608 13.7892 133.362 15.0137 132.821C16.2334 132.292 17.3241 131.483 18.2855 130.394C19.247 129.306 20.0526 127.955 20.7025 126.339C21.4625 127.153 22.3973 127.782 23.5071 128.227Z" fill="#262626"/>
<path fill-rule="evenodd" clip-rule="evenodd" d="M53.0349 101.072L54.686 95.6823L58.7687 96.9131L56.8866 102.247L91.0936 137.455C93.0717 139.492 93.4182 142.606 91.9355 145.026C90.4529 147.446 87.5172 148.557 84.799 147.728L4.40851 123.201C1.69078 122.372 -0.120596 119.812 0.00626399 116.979C0.133124 114.145 2.16542 111.757 4.9468 111.173L53.0349 101.072ZM85.9765 143.884C86.9375 144.177 87.9753 143.784 88.4993 142.929C89.0234 142.074 88.9011 140.973 88.2018 140.253L53.9406 104.989L5.77646 115.106C4.79336 115.312 4.07483 116.156 4.0299 117.158C3.98509 118.159 4.62548 119.065 5.58609 119.358L85.9765 143.884Z" fill="#F04D7D"/>
<path fill-rule="evenodd" clip-rule="evenodd" d="M24.3197 129.22L23.5514 128.985L24.5845 125.615L25.3528 125.849L24.3197 129.22Z" fill="#262626"/>
<path fill-rule="evenodd" clip-rule="evenodd" d="M25.3528 125.849L24.5845 125.615L23.5514 128.985L24.3197 129.22L25.3528 125.849Z" fill="#262626"/>
<path d="M73.1724 119.138L81.05 123.533L82.5728 120.815L74.6952 116.42C73.8797 115.965 73.1106 115.593 72.3878 115.303C71.6711 115.003 70.9565 114.84 70.2439 114.812C68.5635 114.729 66.9838 115.422 65.505 116.89L67.6533 119.092C68.0852 118.678 68.4841 118.374 68.85 118.179C69.2268 117.991 69.6185 117.903 70.025 117.916C70.4424 117.935 70.9 118.048 71.398 118.255C71.8959 118.461 72.4874 118.756 73.1724 119.138Z" fill="#262626"/>
<path d="M20.3581 128.067C20.4417 127.831 20.5215 127.589 20.5973 127.342C21.4237 128.088 22.4087 128.636 23.5523 128.985L30.9494 131.243C31.7118 131.476 32.5083 131.576 33.3389 131.543C34.1696 131.511 34.9647 131.318 35.7243 130.965C36.4994 130.604 37.1974 130.069 37.8181 129.362C37.8574 129.318 37.8961 129.273 37.9343 129.227L33.7537 127.951C33.4062 128.043 33.0732 128.069 32.7548 128.031C32.4186 127.98 32.1611 127.927 31.9825 127.873L24.5853 125.615C24.4543 125.575 24.2215 125.484 23.887 125.343C23.568 125.194 23.2512 124.974 22.9366 124.683C22.9202 124.667 22.9039 124.652 22.8879 124.636L18.1743 123.198L17.2967 126.061C17.1927 126.4 17.0828 126.724 16.9668 127.033L20.3581 128.067Z" fill="#F04D7D"/>
<path d="M66.7513 138.019L65.5871 141.817L68.9642 142.848L70.1286 139.049L66.7513 138.019Z" fill="#F04D7D"/>
<path d="M28.8777 106.14L25.0026 106.96L25.8091 110.898L29.7116 110.075L28.8777 106.14Z" fill="#262626"/>
<path d="M43.5124 142.24C45.3556 142.615 46.9344 142.79 48.2488 142.766C49.5633 142.741 50.6464 142.511 51.4982 142.076C52.2374 141.693 52.8344 141.136 53.2891 140.404C53.756 139.674 54.1101 138.718 54.3514 137.537L50.9825 136.852C50.1281 136.678 49.2876 136.374 48.461 135.939C47.6344 135.504 46.9207 134.922 46.32 134.19C45.7315 133.462 45.3072 132.583 45.0472 131.553C44.7896 130.511 44.8002 129.308 45.0788 127.943C45.2431 127.14 45.4582 126.428 45.7244 125.81C46.0052 125.182 46.3016 124.634 46.6137 124.164C46.9379 123.697 47.2667 123.301 47.6002 122.976C47.9336 122.65 48.2498 122.378 48.5487 122.16C49.3568 121.627 50.2316 121.265 51.1729 121.076C52.1141 120.887 53.0791 120.893 54.0678 121.094C54.9345 121.27 55.7188 121.57 56.4209 121.992C57.1229 122.413 57.7182 122.953 58.2069 123.611C59.5412 125.481 59.8737 128.054 59.2044 131.331L57.7936 138.237C57.4402 139.967 56.8804 141.401 56.1139 142.539C55.3572 143.692 54.362 144.58 53.1284 145.205C51.8825 145.827 50.4191 146.176 48.738 146.253C47.0666 146.344 45.0896 146.158 42.807 145.693L43.5124 142.24ZM53.3624 124.547C52.154 124.302 51.1271 124.537 50.2816 125.253C49.436 125.969 48.8553 127.1 48.5393 128.647C48.2183 130.219 48.4717 131.406 49.2993 132.208C49.5014 132.402 49.7145 132.572 49.9388 132.719C50.1655 132.854 50.3898 132.969 50.6118 133.065C50.8362 133.149 51.0375 133.222 51.2156 133.283C51.4084 133.335 51.5659 133.374 51.6879 133.398L55.0568 134.084L55.7622 130.63C55.9439 129.741 56.0297 128.979 56.0199 128.342C56.0125 127.694 55.9461 127.147 55.8207 126.703C55.6953 126.259 55.5195 125.906 55.2933 125.644C55.0818 125.373 54.8578 125.162 54.6213 125.013C54.3849 124.863 54.152 124.759 53.9226 124.699C53.6956 124.628 53.5089 124.577 53.3624 124.547Z" fill="#262626"/>
<path d="M48.389 93.8075V98.0086H46.9665C46.5051 98.0086 46.031 97.9702 45.544 97.8935C45.057 97.8167 44.5764 97.7017 44.1023 97.5482C43.6409 97.3947 43.1988 97.2029 42.7759 96.9727C42.353 96.7297 41.9685 96.4356 41.6225 96.0903C40.2256 97.3564 38.2585 97.9958 35.7211 98.0086H15.1526C14.2171 98.0086 13.3328 97.8487 12.4998 97.529C11.6668 97.2093 10.9235 96.7489 10.2699 96.1478C10.0136 95.9049 9.74452 95.6107 9.46259 95.2654C9.19346 94.9201 8.94997 94.5173 8.73212 94.0569C8.51426 93.5837 8.33484 93.053 8.19387 92.4648C8.05291 91.8637 7.98242 91.1923 7.98242 90.4506C7.98242 89.7983 8.0465 89.0886 8.17465 88.3213C8.31562 87.5412 8.46299 86.8058 8.61678 86.1153C8.78338 85.4119 8.94357 84.8108 9.09735 84.3121C9.25113 83.8005 9.34725 83.4872 9.38569 83.3721L11.3849 84.0051L13.4033 84.6382C13.3136 84.9067 13.1982 85.284 13.0573 85.77C12.9291 86.2431 12.801 86.7611 12.6728 87.3238C12.5447 87.8737 12.4293 88.43 12.3268 88.9927C12.2371 89.5554 12.1922 90.0413 12.1922 90.4506C12.1922 91.2307 12.314 91.8445 12.5575 92.2921C12.8138 92.7397 13.1021 93.0786 13.4225 93.3088C13.7557 93.5262 14.0889 93.6669 14.4221 93.7308C14.7553 93.782 15.0116 93.8075 15.191 93.8075H35.5865C36.5605 93.8075 37.3102 93.7052 37.8356 93.5006C38.3738 93.296 38.7647 93.053 39.0082 92.7717C39.2517 92.4775 39.3926 92.177 39.4311 91.8701C39.4695 91.5632 39.4888 91.3074 39.4888 91.1028V84.7341H43.6986V91.0069C43.6986 91.6591 43.8331 92.1706 44.1023 92.5415C44.3714 92.9124 44.6853 93.1937 45.0442 93.3855C45.403 93.5646 45.7618 93.6797 46.1207 93.7308C46.4923 93.782 46.7742 93.8075 46.9665 93.8075H48.389ZM30.2233 83.0076L27.1861 79.9384L30.1849 76.8308L33.299 79.9384L30.2233 83.0076ZM22.4957 82.9693L19.4585 79.9L22.438 76.7924L25.5522 79.9L22.4957 82.9693Z" fill="#262626"/>
<path d="M93.5719 98.0086H92.9953C91.8675 98.0086 90.8871 97.8999 90.0542 97.6825C89.2212 97.4523 88.4715 97.139 87.8051 96.7425C87.1387 96.3333 86.5235 95.8537 85.9597 95.3038C85.3958 94.7411 84.8191 94.1273 84.2296 93.4623C84.0502 93.8075 83.8195 94.1528 83.5376 94.4981C83.2685 94.8434 82.9673 95.1695 82.6341 95.4764C82.3009 95.7834 81.9357 96.0711 81.5384 96.3397C81.1411 96.5954 80.731 96.8192 80.3081 97.0111C79.5392 97.3436 78.6806 97.5929 77.7323 97.7592C76.7839 97.9254 75.8036 98.0086 74.7912 98.0086H68.8513V93.8075H75.0603C75.7395 93.8075 76.3931 93.7564 77.021 93.6541C77.649 93.539 78.2193 93.3919 78.7319 93.2129C79.2445 93.0211 79.6866 92.7973 80.0582 92.5415C80.4427 92.2729 80.731 91.9852 80.9233 91.6783C80.9874 91.5376 81.0386 91.3777 81.0771 91.1987C81.1155 91.0069 81.1347 90.8214 81.1347 90.6424C81.1347 90.2587 81.0002 89.7792 80.731 89.2037C80.4619 88.6154 80.1031 87.9696 79.6546 87.2662C79.206 86.5629 78.6934 85.8275 78.1167 85.0602C77.54 84.2801 76.9441 83.5128 76.329 82.7583C75.7267 81.991 75.1244 81.262 74.522 80.5714C73.9325 79.8681 73.3943 79.2414 72.9073 78.6915L73.657 75.0852L90.9576 67.1243L92.6877 70.98L77.54 77.9434L84.9601 87.8417C85.6906 88.8136 86.357 89.6705 86.9593 90.4122C87.5616 91.1539 88.1639 91.7806 88.7662 92.2921C89.3813 92.7909 90.0221 93.1681 90.6885 93.4239C91.3549 93.6797 92.1238 93.8075 92.9953 93.8075H93.5719V98.0086ZM74.2721 69.2536L88.7278 63L89.612 64.9183L74.0415 71.6898L74.2721 69.2536Z" fill="#262626"/>
<path d="M107.373 97.9702C106.181 97.9702 105.117 97.8104 104.182 97.4906C103.259 97.1581 102.465 96.6722 101.798 96.0327C101.106 96.6978 100.318 97.1965 99.4339 97.529C98.5624 97.8487 97.6846 98.0086 96.8003 98.0086H92.5521V93.8075H96.8003C96.9669 93.8075 97.2104 93.782 97.5308 93.7308C97.864 93.6669 98.1908 93.5262 98.5112 93.3088C98.8316 93.0914 99.1071 92.7717 99.3378 92.3497C99.5813 91.9148 99.703 91.3202 99.703 90.5657V84.7533H103.913V90.4889C103.913 91.6399 104.182 92.4775 104.72 93.0019C105.258 93.5262 106.143 93.7884 107.373 93.7884C107.54 93.7884 107.783 93.7564 108.103 93.6925C108.437 93.6285 108.763 93.4878 109.084 93.2704C109.404 93.0402 109.68 92.7077 109.91 92.2729C110.154 91.8381 110.276 91.2434 110.276 90.4889V84.7533H114.466V90.4889C114.466 91.6399 114.742 92.4839 115.293 93.0211C115.844 93.5582 116.741 93.8267 117.984 93.8267C118.176 93.8267 118.433 93.7884 118.753 93.7116C119.073 93.6349 119.387 93.4814 119.695 93.2512C120.002 93.0211 120.271 92.6886 120.502 92.2537C120.733 91.8061 120.848 91.2179 120.848 90.4889C120.848 90.2076 120.823 89.8623 120.771 89.4531C120.72 89.031 120.656 88.5834 120.579 88.1103C120.502 87.6371 120.412 87.1575 120.31 86.6716C120.22 86.1728 120.124 85.706 120.022 85.2712C119.932 84.8236 119.842 84.4272 119.752 84.0819C119.663 83.7366 119.592 83.4744 119.541 83.2954L123.52 82.0293C123.546 82.1061 123.597 82.3107 123.674 82.6432C123.764 82.9757 123.86 83.3849 123.962 83.8709C124.078 84.3568 124.193 84.8939 124.308 85.4822C124.436 86.0705 124.552 86.6652 124.654 87.2662C124.757 87.8673 124.84 88.4492 124.904 89.0119C124.968 89.5745 125 90.0669 125 90.4889C125 91.755 124.789 92.8548 124.366 93.7884C123.956 94.7219 123.418 95.502 122.751 96.1287C122.098 96.7553 121.348 97.2221 120.502 97.529C119.669 97.8359 118.83 97.9958 117.984 98.0086C116.792 98.0086 115.722 97.8359 114.774 97.4906C113.825 97.1454 113.012 96.653 112.332 96.0136C111.64 96.6786 110.859 97.1709 109.987 97.4906C109.129 97.8104 108.257 97.9702 107.373 97.9702ZM111.698 76.2745L108.622 79.3821L105.547 76.3128L108.622 73.2052L111.698 76.2745ZM119.945 76.1978L116.907 79.267L113.736 76.2361L116.85 73.1285L119.945 76.1978ZM115.696 70.7882L112.813 73.6656L109.968 70.8266L112.851 67.9492L115.696 70.7882Z" fill="#262626"/>
<path fill-rule="evenodd" clip-rule="evenodd" d="M65.1961 93.7692C64.8885 93.7564 64.6322 93.7436 64.4272 93.7308C62.9417 94.5977 61.2525 95.0546 59.5326 95.0546H59.2618L58.7564 96.9152C59.3203 97.0686 59.9675 97.2157 60.6979 97.3564C61.4284 97.4842 62.1973 97.5993 63.0047 97.7017C63.8249 97.7912 64.6643 97.8615 65.5229 97.9127C66.3815 97.9766 67.2209 98.0086 68.0411 98.0086H69.6558V93.8075H68.0411H67.1953H66.1957C65.8497 93.7948 65.5165 93.782 65.1961 93.7692ZM54.0458 97.8028L55.2454 94.0528L58.7949 92.906C58.231 92.7013 57.712 92.4711 57.2378 92.2154C56.7765 91.9468 56.3792 91.6335 56.046 91.2754C55.7128 90.9173 55.4629 90.5273 55.2963 90.1053C55.1931 89.8359 55.1218 89.5542 55.0826 89.2603L51.0865 88.4555C51.0865 89.0182 51.1249 89.5426 51.2018 90.0285C51.2915 90.5017 51.4133 90.9493 51.5671 91.3713C51.7337 91.7934 51.9387 92.1962 52.1822 92.5798C52.4257 92.9635 52.7076 93.3472 53.028 93.7308C52.7589 93.7564 52.5026 93.7756 52.2591 93.7884C52.0284 93.7884 51.7913 93.7948 51.5478 93.8075H50.7789H49.8754H47.7032V98.0086H49.8754C51.4073 98.0086 52.7974 97.94 54.0458 97.8028ZM58.9294 68.0122L55.7384 71.2349L58.9679 74.496L62.1973 71.2733L58.9294 68.0122Z" fill="#262626"/>
<path d="M62.0045 81.7799C61.1075 81.3579 60.0823 81.1469 58.9289 81.1469C57.8396 81.1469 56.8208 81.3451 55.8724 81.7416C54.9241 82.138 54.0911 82.6687 53.3735 83.3337C52.6686 83.9988 52.1112 84.7789 51.7011 85.674C51.291 86.5565 51.0859 87.4836 51.0859 88.4556L55.082 89.2603C55.0579 89.0798 55.0459 88.8947 55.0459 88.7049V88.4747C55.0459 88.0783 55.1548 87.6946 55.3726 87.3238C55.5905 86.9401 55.8789 86.6012 56.2377 86.3071C56.5965 86.0129 57.0066 85.7828 57.4679 85.6165C57.9421 85.4375 58.4291 85.3479 58.9289 85.3479C59.3646 85.3479 59.7939 85.4439 60.2168 85.6357C60.6397 85.8275 61.0178 86.0769 61.351 86.3838C61.6842 86.6907 61.9533 87.0296 62.1583 87.4005C62.3634 87.7586 62.4659 88.1103 62.4659 88.4556C62.4659 89.0694 62.3698 89.6129 62.1776 90.0861C61.9981 90.5465 61.7418 90.9557 61.4086 91.3138C61.0883 91.6591 60.7038 91.9596 60.2553 92.2154C60.1226 92.291 59.9866 92.3644 59.8473 92.4356C59.1669 92.783 58.405 92.9234 57.6417 92.9575L55.5457 93.0511L54.0453 97.8028C54.3217 97.7725 54.5911 97.7387 54.8536 97.7017C56.3018 97.497 57.6025 97.2349 58.7559 96.9152L59.049 95.9999L60.5746 95.6835C61.6194 95.4668 62.6087 95.0387 63.4818 94.4254C64.2119 93.9125 64.9047 93.318 65.307 92.5217C65.4911 92.1574 65.6403 91.7865 65.7915 91.3905C66.099 90.5721 66.2528 89.5937 66.2528 88.4556C66.2528 87.5348 66.0862 86.6396 65.753 85.77C65.4198 84.8876 64.9392 84.1075 64.3113 83.4297C63.6833 82.7391 62.9144 82.1892 62.0045 81.7799Z" fill="#F04D7D"/>
<path d="M9.03778 38.2327C8.6693 38.2327 8.30566 38.2133 7.94688 38.1745C7.58809 38.1358 7.22445 38.0824 6.85597 38.0145C6.48748 37.9467 6.1093 37.8642 5.72142 37.7673C5.33354 37.6606 4.92627 37.5442 4.4996 37.4182L2.76869 36.8945L3.81597 33.4036C4.6596 33.6945 5.53233 33.9515 6.43415 34.1745C7.34566 34.3976 8.20384 34.543 9.00869 34.6109C9.27051 34.6303 9.52263 34.64 9.76506 34.64C10.2499 34.64 10.7348 34.5867 11.2196 34.48C11.7141 34.3733 12.0632 34.1067 12.2669 33.68C12.3057 33.6024 12.3251 33.5103 12.3251 33.4036C12.3251 33.3358 12.3057 33.2291 12.2669 33.0836C12.2281 32.9382 12.1311 32.7539 11.976 32.5309L6.55051 24.6182L9.60506 22.64L10.5941 24.1673C10.5941 24.177 10.6087 24.2061 10.6378 24.2545C10.6766 24.303 10.7445 24.4048 10.8414 24.56C10.9481 24.7152 11.0935 24.9382 11.2778 25.2291C11.4717 25.5103 11.7238 25.8836 12.0341 26.3491C12.3445 26.8145 12.7226 27.3915 13.1687 28.08C13.6245 28.7588 14.1675 29.5733 14.7978 30.5236C15.2923 31.2703 15.5978 32.0412 15.7141 32.8364C15.7432 33.04 15.7578 33.2388 15.7578 33.4327C15.7578 34.0145 15.6414 34.5721 15.4087 35.1055C15.2438 35.4933 15.0208 35.8521 14.7396 36.1818C14.4681 36.5018 14.1481 36.7879 13.7796 37.04C13.0911 37.5152 12.262 37.84 11.2923 38.0145C10.4778 38.16 9.72627 38.2327 9.03778 38.2327ZM26.4631 38.2182C25.3965 38.2182 24.4801 38.1503 23.714 38.0145C22.948 37.8885 22.3031 37.6994 21.7795 37.4473C21.2559 37.1855 20.834 36.8558 20.514 36.4582C20.2037 36.0606 19.9662 35.5952 19.8013 35.0618C19.6365 34.5285 19.5249 33.9273 19.4668 33.2582C19.4183 32.5794 19.394 31.8327 19.394 31.0182L19.394 17.2436H23.0159L23.0159 31.0182C23.0159 31.7939 23.0401 32.4145 23.0886 32.88C23.1468 33.3455 23.2874 33.7091 23.5104 33.9709C23.7431 34.223 24.0874 34.3927 24.5431 34.48C25.0086 34.5576 25.6486 34.5964 26.4631 34.5964V38.2182ZM32.2228 34.5964C32.4167 34.5964 32.5622 34.6497 32.6591 34.7564C32.7658 34.8533 32.8191 34.9842 32.8191 35.1491L32.8191 37.6364C32.8191 37.8497 32.7658 38 32.6591 38.0873C32.5622 38.1745 32.4167 38.2182 32.2228 38.2182H26.1428C25.9295 38.2182 25.7791 38.1745 25.6919 38.0873C25.6046 38 25.561 37.8497 25.561 37.6364V35.1491C25.561 34.9842 25.6046 34.8533 25.6919 34.7564C25.7791 34.6497 25.9295 34.5964 26.1428 34.5964H32.2228ZM41.3377 25.5491C42.2395 25.5491 43.0492 25.6703 43.7668 25.9127C44.4843 26.1455 45.0904 26.4945 45.5849 26.96C46.0795 27.4255 46.4577 28.0024 46.7195 28.6909C46.991 29.3697 47.1268 30.16 47.1268 31.0618V31.1491C47.1268 31.6048 47.0443 32.0994 46.8795 32.6327C46.7243 33.1661 46.4189 33.7042 45.9631 34.2473C45.5171 34.7903 44.8916 35.3091 44.0868 35.8036C43.2916 36.2982 42.2637 36.7345 41.0031 37.1127H41.0177C40.6492 37.2388 40.2516 37.3455 39.8249 37.4327C39.3983 37.52 38.9959 37.5976 38.6177 37.6655C38.7631 38.1212 39.0249 38.5964 39.4031 39.0909C39.7813 39.5952 40.2177 40.0752 40.7122 40.5309C41.2068 40.9867 41.7304 41.3939 42.2831 41.7527C42.8359 42.1212 43.3692 42.3976 43.8831 42.5818C43.5049 41.9612 43.2819 41.3309 43.214 40.6909C43.1849 40.4873 43.1704 40.2836 43.1704 40.08C43.1704 39.6533 43.2383 39.183 43.374 38.6691C43.5098 38.1648 43.7619 37.6509 44.1304 37.1273C44.5086 36.6036 44.9498 36.1479 45.454 35.76C45.968 35.3721 46.5401 35.0715 47.1704 34.8582C47.7134 34.6836 48.2759 34.5964 48.8577 34.5964H51.0977L51.0977 38.2182H48.9886C48.5328 38.2376 48.1401 38.3345 47.8104 38.5091C47.4807 38.6836 47.2092 38.9067 46.9959 39.1782C46.7825 39.4497 46.6371 39.76 46.5595 40.1091C46.511 40.3224 46.4868 40.5406 46.4868 40.7636C46.4868 40.8994 46.5013 41.0933 46.5304 41.3455C46.5692 41.6073 46.6807 41.9176 46.8649 42.2764C47.0589 42.6448 47.3255 42.9842 47.6649 43.2945L46.4722 46.2327C45.134 46.2327 43.8492 46.0339 42.6177 45.6364C41.3862 45.2485 40.2662 44.6958 39.2577 43.9782C38.2589 43.2703 37.4007 42.417 36.6831 41.4182C35.9752 40.4194 35.4759 39.3188 35.1849 38.1164C34.6322 38.1552 34.0843 38.1794 33.5413 38.1891C32.9983 38.2085 32.4795 38.2182 31.9849 38.2182V34.5964C32.3922 34.5964 32.8431 34.5915 33.3377 34.5818C33.8322 34.5721 34.3995 34.543 35.0395 34.4945C35.0686 33.9418 35.1074 33.4376 35.1559 32.9818C35.214 32.5261 35.2771 32.0994 35.3449 31.7018C35.4225 31.3042 35.5098 30.9309 35.6068 30.5818C35.7037 30.2327 35.8152 29.8885 35.9413 29.5491C36.2613 28.7636 36.6395 28.1139 37.0759 27.6C37.5122 27.0764 37.9728 26.6642 38.4577 26.3636C38.9425 26.063 39.4322 25.8545 39.9268 25.7382C40.431 25.6121 40.9013 25.5491 41.3377 25.5491ZM41.3377 29.1564C41.0468 29.1564 40.7365 29.2145 40.4068 29.3309C40.0771 29.4473 39.7668 29.68 39.4759 30.0291C39.1946 30.3782 38.9619 30.8727 38.7777 31.5127C38.5934 32.143 38.5013 32.977 38.5013 34.0145C39.1122 33.9467 39.7377 33.84 40.3777 33.6945C41.0274 33.5394 41.614 33.3406 42.1377 33.0982C42.6613 32.8558 43.088 32.5648 43.4177 32.2255C43.7474 31.8861 43.9122 31.4933 43.9122 31.0473C43.9122 30.6788 43.8395 30.3733 43.694 30.1309C43.5486 29.8885 43.3546 29.6945 43.1122 29.5491C42.8795 29.4036 42.608 29.3018 42.2977 29.2436C41.9874 29.1855 41.6674 29.1564 41.3377 29.1564ZM62.4478 34.5964L62.4478 38.2182H61.5314C60.7072 38.2182 59.9557 38.1067 59.2769 37.8836C58.5981 37.6606 58.026 37.3309 57.5605 36.8945C57.0175 37.3503 56.3726 37.6848 55.626 37.8982C54.889 38.1115 54.0454 38.2182 53.0951 38.2182H50.5205L50.5205 34.5964H53.0951C53.6866 34.5964 54.1569 34.543 54.506 34.4364C54.8648 34.32 55.1314 34.1794 55.306 34.0145C55.4902 33.8497 55.6066 33.6655 55.6551 33.4618C55.7132 33.2582 55.7423 33.0594 55.7423 32.8655V28.1527H59.3496V32.7636C59.3496 33.2 59.4466 33.5442 59.6405 33.7964C59.8345 34.0388 60.0526 34.223 60.2951 34.3491C60.5472 34.4655 60.7945 34.5382 61.0369 34.5673C61.2793 34.5867 61.4441 34.5964 61.5314 34.5964H62.4478ZM54.0696 21.4618L56.6878 18.8145L59.3641 21.4909L56.7169 24.1382L54.0696 21.4618ZM68.2228 34.5964C68.4167 34.5964 68.5622 34.6497 68.6591 34.7564C68.7658 34.8533 68.8191 34.9842 68.8191 35.1491V37.6364C68.8191 37.8497 68.7658 38 68.6591 38.0873C68.5622 38.1745 68.4167 38.2182 68.2228 38.2182H62.1428C61.9295 38.2182 61.7791 38.1745 61.6919 38.0873C61.6046 38 61.561 37.8497 61.561 37.6364L61.561 35.1491C61.561 34.9842 61.6046 34.8533 61.6919 34.7564C61.7791 34.6497 61.9295 34.5964 62.1428 34.5964H68.2228ZM67.9122 34.5964H69.7886C70.3607 34.5964 70.8213 34.5479 71.1704 34.4509C71.5292 34.3539 71.8055 34.2133 71.9995 34.0291C72.2031 33.8352 72.3389 33.6024 72.4068 33.3309C72.4746 33.0594 72.5086 32.7491 72.5086 32.4V28.1673H76.1304V32.3273C76.1304 33.1127 76.3195 33.6848 76.6977 34.0436C77.0759 34.4024 77.6722 34.5867 78.4868 34.5964C78.6322 34.5867 78.8068 34.5576 79.0104 34.5091C79.2237 34.4606 79.4274 34.3636 79.6213 34.2182C79.8249 34.063 79.9946 33.8448 80.1304 33.5636C80.2759 33.2727 80.3486 32.8848 80.3486 32.4V28.1673H83.9559V32.3273C83.9559 33.1224 84.1449 33.6994 84.5231 34.0582C84.9013 34.417 85.5171 34.5964 86.3704 34.5964C86.6031 34.5964 86.831 34.5624 87.054 34.4945C87.2868 34.417 87.4952 34.2958 87.6795 34.1309C87.8637 33.9564 88.014 33.7333 88.1304 33.4618C88.2468 33.1903 88.3146 32.8558 88.334 32.4582V28.1673L91.9559 28.1673V32.4727C91.9752 33.2194 92.2031 33.7624 92.6395 34.1018C93.0759 34.4315 93.7449 34.5964 94.6468 34.5964H96.0722V38.2182H94.6468C93.648 38.2182 92.7801 38.1115 92.0431 37.8982C91.3062 37.6752 90.671 37.3164 90.1377 36.8218C89.6431 37.2776 89.0613 37.6267 88.3922 37.8691C87.7328 38.1018 87.0589 38.2182 86.3704 38.2182C85.4589 38.2182 84.6589 38.1067 83.9704 37.8836C83.2916 37.6606 82.6855 37.3018 82.1522 36.8073C81.648 37.2533 81.0807 37.5976 80.4504 37.84C79.8298 38.0824 79.1995 38.2085 78.5595 38.2182H78.4577C77.5849 38.2182 76.8092 38.1018 76.1304 37.8691C75.4516 37.6267 74.8601 37.2921 74.3559 36.8655C73.2213 37.7673 71.6989 38.2182 69.7886 38.2182H67.9122V34.5964ZM81.7449 22.1455L79.2722 24.6473L76.7995 22.1745L79.2722 19.6727L81.7449 22.1455ZM87.9849 22.0873L85.5413 24.56L82.9959 22.1164L85.4977 19.6145L87.9849 22.0873ZM84.7704 17.9855L82.4431 20.3127L80.1449 18.0145L82.4722 15.6873L84.7704 17.9855ZM111.128 34.5964V38.2182H108.975C108.151 38.2182 107.399 38.1067 106.721 37.8836C106.042 37.6606 105.47 37.3309 105.004 36.8945C104.461 37.3503 103.816 37.6848 103.07 37.8982C102.333 38.1115 101.489 38.2182 100.539 38.2182H95.506V34.5964H100.539C101.13 34.5964 101.601 34.543 101.95 34.4364C102.308 34.32 102.575 34.1794 102.75 34.0145C102.934 33.8497 103.05 33.6655 103.099 33.4618C103.157 33.2582 103.186 33.0594 103.186 32.8655V28.1527H106.793V32.7636C106.793 33.2 106.89 33.5442 107.084 33.7964C107.278 34.0388 107.496 34.223 107.739 34.3491C107.991 34.4655 108.238 34.5382 108.481 34.5673C108.723 34.5867 108.888 34.5964 108.975 34.5964H111.128ZM105.31 46.2182L102.866 43.7455L105.281 41.2436L107.782 43.7455L105.31 46.2182ZM99.2151 46.2327L96.7714 43.76L99.1714 41.2582L101.673 43.76L99.2151 46.2327ZM121.344 26C121.364 26.0679 121.403 26.2279 121.461 26.48C121.529 26.7321 121.601 27.0424 121.679 27.4109C121.757 27.7697 121.834 28.1721 121.912 28.6182C121.999 29.0642 122.077 29.5152 122.144 29.9709C122.222 30.417 122.28 30.8533 122.319 31.28C122.368 31.7067 122.392 32.08 122.392 32.4C122.392 33.3988 122.227 34.2667 121.897 35.0036C121.568 35.7309 121.136 36.3321 120.603 36.8073C120.069 37.2824 119.468 37.6364 118.799 37.8691C118.14 38.1018 117.475 38.2182 116.806 38.2182H110.537V34.5964H116.908C117.024 34.5964 117.189 34.5818 117.403 34.5527C117.626 34.5139 117.844 34.4218 118.057 34.2764C118.28 34.1309 118.474 33.9127 118.639 33.6218C118.804 33.3212 118.886 32.9139 118.886 32.4C118.886 32.1867 118.867 31.9297 118.828 31.6291C118.799 31.3188 118.755 30.9891 118.697 30.64C118.639 30.2909 118.571 29.937 118.494 29.5782C118.426 29.2097 118.358 28.8655 118.29 28.5455C118.222 28.2158 118.154 27.92 118.086 27.6582C118.018 27.3867 117.965 27.1782 117.926 27.0327L121.344 26ZM111.279 43.0036L113.752 40.5309L116.224 43.0327L113.752 45.5055L111.279 43.0036ZM117.344 43.0327L119.846 40.56L122.319 43.0618L119.846 45.5345L117.344 43.0327ZM114.45 47.1055L116.748 44.8073L119.075 47.1345L116.777 49.4327L114.45 47.1055Z" fill="#262626"/>
</svg>
