<svg width="48" height="48" viewBox="0 0 48 48" fill="none" xmlns="http://www.w3.org/2000/svg">
<path d="M19.5557 34.4637L18.3201 36.0363L22.6208 39.4155L30.2353 29.3534L28.6405 28.1466L22.255 36.5845L19.5557 34.4637Z" fill="#7B7B7B"/>
<path fill-rule="evenodd" clip-rule="evenodd" d="M11.4143 39.7744C12.2793 40.3776 13.3046 40.6828 14.3748 40.6893V42.7665C14.3748 43.4915 14.6629 44.1869 15.1755 44.6994C15.6879 45.2119 16.3833 45.5 17.1083 45.5H31.1413C31.8663 45.4999 32.5617 45.2119 33.0742 44.6993C33.5868 44.1868 33.8748 43.4915 33.8748 42.7665V40.6823C34.854 40.6335 35.788 40.3307 36.5854 39.7742C37.8622 38.884 38.6127 37.4678 38.7108 35.8677C38.8036 34.4232 39.765 33.1524 41.1861 32.6136C42.7251 32.037 43.8911 30.9206 44.3806 29.4746C44.8719 28.0228 44.6102 26.4487 43.7101 25.0995C42.9009 23.8785 42.9006 22.3213 43.7106 21.0978C44.61 19.752 44.8721 18.1776 44.3806 16.7255C43.8913 15.2797 42.7259 14.1634 41.1847 13.5848C39.7649 13.0467 38.8034 11.7768 38.7096 10.3295C38.6129 8.7327 37.8626 7.3164 36.5851 6.4258C35.3178 5.5414 33.7046 5.2975 32.1101 5.6964C30.6219 6.0653 29.0455 5.574 28.0719 4.4428C27.0243 3.2152 25.5654 2.5 23.9999 2.5C22.435 2.5 20.9763 3.2147 19.9255 4.4436C18.9542 5.5735 17.3789 6.0652 15.8892 5.6972C14.2955 5.2977 12.6827 5.5414 11.4143 6.4258C10.1375 7.316 9.38759 8.7317 9.28929 10.332C9.19629 11.7769 8.23469 13.0478 6.81359 13.5867C5.27499 14.1628 4.10909 15.2791 3.61959 16.7256C3.12809 18.1774 3.38949 19.7515 4.28939 21.1006C5.09879 22.3217 5.09909 23.8789 4.28899 25.102C3.38969 26.4478 3.12799 28.0222 3.61959 29.4745C4.10899 30.9202 5.27429 32.0366 6.81549 32.6154C8.23479 33.153 9.19689 34.4234 9.29059 35.8703C9.38729 37.4675 10.1372 38.8839 11.4143 39.7744ZM35.7272 38.544C35.189 38.9195 34.5537 39.1332 33.8748 39.1795V25.4995C36.7105 25.4996 38.6422 25.4999 38.683 25.5001C39.5227 25.5056 40.2516 24.9221 40.4297 24.1014C40.608 23.2809 40.187 22.4476 39.4207 22.1043C38.0289 21.4806 36.3679 20.7457 34.4915 19.9223L34.2126 19.8C32.0783 18.8641 29.7919 17.8688 27.5055 16.8784C26.7053 16.5318 25.9622 16.2106 25.2953 15.9227L25.0071 15.7984C25.0765 15.5086 25.1961 15.3173 25.3551 15.1774C25.4451 15.0981 25.8797 14.8254 25.8192 14.8672C26.5913 14.3342 27.0629 13.456 27.0629 12.5C27.0629 10.913 25.7749 9.625 24.1879 9.625C22.6009 9.625 21.3129 10.913 21.3129 12.5H22.8129C22.8129 11.7414 23.4293 11.125 24.1879 11.125C24.9465 11.125 25.5629 11.7414 25.5629 12.5C25.5629 12.9541 25.3412 13.3704 24.9755 13.6269C25.0946 13.5431 24.5568 13.8817 24.3638 14.0516C23.9115 14.4499 23.6134 14.9959 23.4952 15.7317L23.0579 15.9346C22.4321 16.2249 21.7345 16.5483 20.983 16.8966C18.8358 17.8919 16.6864 18.8871 14.6773 19.8159L14.6237 19.8407C12.7428 20.7103 11.0824 21.4765 9.70239 22.1115C8.94659 22.4593 8.53359 23.2854 8.70899 24.0987C8.88549 24.9176 9.61039 25.512 10.4487 25.4999C10.4656 25.4997 12.0127 25.4995 14.3748 25.4994V29.5H15.8748V24H32.3748V42.7665C32.3748 43.0937 32.2448 43.4074 32.0135 43.6386C31.7822 43.87 31.4684 44 31.1413 44H17.1083C16.7812 44 16.4674 43.87 16.2362 43.6387C16.0048 43.4074 15.8748 43.0936 15.8748 42.7665V32.5H14.3748V39.1891C13.6018 39.1826 12.8761 38.965 12.2722 38.544C11.3828 37.9238 10.8576 36.9318 10.7877 35.7765C10.6553 33.7327 9.30989 31.9562 7.34479 31.2119C6.20509 30.7839 5.37829 29.9918 5.04039 28.9936C4.70449 28.0013 4.88619 26.9081 5.53789 25.9329C6.68239 24.2049 6.68189 21.9951 5.53849 20.27C4.88609 19.292 4.70449 18.1986 5.04039 17.2065C5.37839 16.2078 6.20499 15.4162 7.34249 14.9904C9.31039 14.2441 10.655 12.467 10.7863 10.4261C10.8575 9.2681 11.3828 8.2764 12.2722 7.6562C13.1698 7.0303 14.3367 6.8542 15.5278 7.1531C17.5636 7.6566 19.7199 6.9838 21.0642 5.4199C21.8394 4.5134 22.8872 4 23.9999 4C25.1128 4 26.1604 4.5135 26.933 5.4189C28.2802 6.9844 30.437 7.6565 32.4726 7.152C33.6635 6.854 34.8305 7.0305 35.727 7.656C36.6171 8.2767 37.1426 9.2685 37.2125 10.4233C37.345 12.4674 38.6897 14.2433 40.6554 14.9883C41.7952 15.4162 42.6219 16.2081 42.9597 17.2064C43.2955 18.1984 43.1135 19.2916 42.4616 20.2671C41.3174 21.9955 41.3178 24.2051 42.461 25.93C43.1137 26.9084 43.2955 28.0018 42.9598 28.9937C42.6219 29.9919 41.7949 30.7837 40.6571 31.21C38.6894 31.956 37.3448 33.7332 37.2137 35.7737C37.1428 36.9315 36.6169 37.9236 35.7272 38.544ZM38.6928 24.0002C38.6495 23.9999 36.7143 23.9996 33.8748 23.9995V22.5H14.3748V23.9995C12.0025 23.9996 10.4468 23.9998 10.4269 24.0001C10.3129 24.0017 10.2031 23.9117 10.1753 23.7825C10.1481 23.6563 10.2122 23.5281 10.3295 23.4741C11.7103 22.8387 13.3715 22.0721 15.2531 21.2023L15.3067 21.1775C17.3164 20.2484 19.4662 19.253 21.6138 18.2576C22.1835 17.9935 22.7222 17.7437 23.2222 17.5118C23.3818 17.4378 23.5376 17.3656 23.6891 17.2953L24.1715 17.0715L24.7009 17.2999C25.3672 17.5875 26.1097 17.9085 26.9093 18.2549C29.1938 19.2444 31.4783 20.2388 33.6102 21.1737L33.8887 21.2959C35.7619 22.1179 37.4195 22.8512 38.8073 23.4731C38.9263 23.5264 38.9916 23.6557 38.9639 23.783C38.9363 23.9105 38.8232 24.001 38.6928 24.0002Z" fill="#7B7B7B"/>
</svg>
