<svg width="48" height="48" viewBox="0 0 48 48" fill="none" xmlns="http://www.w3.org/2000/svg">
<path fill-rule="evenodd" clip-rule="evenodd" d="M28.9707 6.33333C37.0198 6.33333 43.7443 12.0522 45.2988 19.6446L37.3416 17.4119L37.6306 18.533C37.6464 18.5942 37.6609 18.6558 37.6742 18.7177L35.2196 17.5991L34.6667 18.8124L37.7493 20.2172C37.4916 22.5496 35.5116 24.3666 33.1111 24.3666C30.7764 24.3666 28.8396 22.6479 28.498 20.408L33.9997 17.901V17.4722C33.9997 17.3856 34.0436 17.2754 34.1588 17.1107C34.2194 17.0242 34.2952 16.9289 34.4044 16.8006C34.4175 16.7851 34.4575 16.7387 34.5059 16.6827C34.5859 16.5901 34.6887 16.471 34.7313 16.4204C35.4315 15.5914 35.7775 14.8926 35.7775 13.9221C35.7775 12.5728 34.6824 11.4777 33.3331 11.4777C31.9837 11.4777 30.8886 12.5728 30.8886 13.9221V14.5888H32.222V13.9221C32.222 13.3092 32.7201 12.811 33.3331 12.811C33.946 12.811 34.4442 13.3092 34.4442 13.9221C34.4442 14.514 34.2287 14.9491 33.7126 15.5602C33.6749 15.6049 33.5773 15.718 33.498 15.8099C33.4477 15.8681 33.4048 15.9179 33.389 15.9364C33.2548 16.094 33.1555 16.219 33.0663 16.3463C32.9103 16.5694 32.7968 16.7876 32.7315 17.0137L28.5062 18.939C28.5287 18.802 28.5573 18.6662 28.5918 18.5321L28.8809 17.4109L18.2222 20.4026V30.3023L24.4444 28.969V43.2222H41.7778V35.6434C41.8372 35.5833 41.8961 35.5227 41.9547 35.4617C43.5407 33.8097 44.7875 31.8884 45.6412 29.7969L48 30.3023V20.4026L46.729 20.046C45.318 11.5146 37.8993 5 28.9707 5C25.1019 5 21.4141 6.22693 18.3547 8.46622L19.1422 9.54213C21.975 7.46862 25.3876 6.33333 28.9707 6.33333ZM39.1025 19.3754C39.1082 19.4832 39.1111 19.5914 39.1111 19.6999C39.1111 23.0117 36.4228 25.6999 33.1111 25.6999C29.7994 25.6999 27.1111 23.0117 27.1111 19.6999C27.1111 19.5622 27.1158 19.4251 27.1251 19.2886L19.5556 21.4132V28.6531L25.7778 27.3197V41.8889H40.4444V27.3197L46.6667 28.6531V21.4132L39.0972 19.2893L39.0988 19.3135L39.102 19.3684L39.1051 19.3697L39.1025 19.3754ZM44.3153 29.5128C43.6801 31.0068 42.8266 32.404 41.7778 33.6614V28.969L44.3153 29.5128Z" fill="#7B7B7B"/>
<path d="M16.6519 9.88026C13.3944 12.9404 11.3804 17.0841 11.0267 21.5734L9.05244 19.0351L8 19.8538L11.6373 24.5303L15.2747 19.8538L14.2222 19.0351L12.3798 21.4039C12.7662 17.3529 14.6142 13.6239 17.5648 10.852L16.6519 9.88026Z" fill="#7B7B7B"/>
<path fill-rule="evenodd" clip-rule="evenodd" d="M6.39583 37.4182V27.6667H6.23958L0 29.9792V32.1771L3.88542 30.75V42.8333H6.39583V39.5035H12.6667V42.8889H15.1562V39.5035H17.0625V37.4826H15.1562V27.7222H12.5937L6.39583 37.4182ZM12.375 31.5972L8.58333 37.4826H12.6667V31.0556L12.375 31.5972Z" fill="#7B7B7B"/>
</svg>
